<svg xmlns="http://www.w3.org/2000/svg" xmlns:svg="http://www.w3.org/2000/svg" id="svg1" width="512" height="512" version="1.1" viewBox="0 0 135.467 135.467"><defs id="defs1"><filter style="color-interpolation-filters:sRGB" id="filter21" width="1.703" height="2.866" x="-.351" y="-.933"><feGaussianBlur id="feGaussianBlur21" stdDeviation="5.079"/></filter><filter style="color-interpolation-filters:sRGB" id="filter22" width="1.858" height="2.299" x="-.429" y="-.649"><feGaussianBlur id="feGaussianBlur22" stdDeviation="6.59"/></filter><filter style="color-interpolation-filters:sRGB" id="filter23" width="1.83" height="2.287" x="-.415" y="-.643"><feGaussianBlur id="feGaussianBlur23" stdDeviation="7.858"/></filter><filter style="color-interpolation-filters:sRGB" id="filter24" width="1.723" height="2.852" x="-.361" y="-.926"><feGaussianBlur id="feGaussianBlur24" stdDeviation="5.269"/></filter><filter style="color-interpolation-filters:sRGB" id="filter27" width="1.352" height="2.672" x="-.176" y="-.836"><feGaussianBlur id="feGaussianBlur26" stdDeviation="4.753"/></filter><filter style="color-interpolation-filters:sRGB" id="filter52" width="1.661" height="3.194" x="-.33" y="-1.097"><feGaussianBlur id="feGaussianBlur52" stdDeviation="4.258"/></filter><filter style="color-interpolation-filters:sRGB" id="filter53" width="1.68" height="3.049" x="-.34" y="-1.024"><feGaussianBlur id="feGaussianBlur54" stdDeviation="4.319"/></filter><filter style="color-interpolation-filters:sRGB" id="filter55" width="1.663" height="3.186" x="-.332" y="-1.093"><feGaussianBlur id="feGaussianBlur55" stdDeviation="4.426"/></filter><filter style="color-interpolation-filters:sRGB" id="filter56" width="1.692" height="2.976" x="-.346" y="-.988"><feGaussianBlur id="feGaussianBlur56" stdDeviation="4.927"/></filter><filter style="color-interpolation-filters:sRGB" id="filter57" width="2.012" height="2.065" x="-.506" y="-.532"><feGaussianBlur id="feGaussianBlur57" stdDeviation="5.826"/></filter><filter style="color-interpolation-filters:sRGB" id="filter58" width="1.643" height="3.262" x="-.321" y="-1.131"><feGaussianBlur id="feGaussianBlur58" stdDeviation="4.239"/></filter><filter style="color-interpolation-filters:sRGB" id="filter59" width="1.806" height="2.423" x="-.403" y="-.712"><feGaussianBlur id="feGaussianBlur59" stdDeviation="4.495"/></filter><filter style="color-interpolation-filters:sRGB" id="filter60" width="1.352" height="3.035" x="-.176" y="-1.018"><feGaussianBlur id="feGaussianBlur60" stdDeviation="4.8"/></filter><filter style="color-interpolation-filters:sRGB" id="filter70" width="1.863" height="1.625" x="-.432" y="-.312"><feGaussianBlur id="feGaussianBlur70" stdDeviation="18.461"/></filter><filter style="color-interpolation-filters:sRGB" id="filter72" width="1.865" height="1.626" x="-.433" y="-.313"><feGaussianBlur id="feGaussianBlur72" stdDeviation="18.509"/></filter><filter style="color-interpolation-filters:sRGB" id="filter1" width="1.914" height="2.144" x="-.457" y="-.572"><feGaussianBlur id="feGaussianBlur1" stdDeviation="8.581"/></filter><filter style="color-interpolation-filters:sRGB" id="filter2" width="2.09" height="2.774" x="-.545" y="-.887"><feGaussianBlur id="feGaussianBlur2" stdDeviation="4.32"/></filter><clipPath id="clipPath1" clipPathUnits="userSpaceOnUse"><path style="font-size:224.608px;line-height:393.415px;font-family:'Cherry Bomb One';-inkscape-font-specification:'Cherry Bomb One';letter-spacing:0;fill:#259eb4;fill-opacity:1;stroke:none;stroke-width:2.11667;stroke-linecap:square;paint-order:stroke fill markers" id="path5" d="m 452.78682,224.36663 q -8.98432,0 -12.80266,-4.94138 -3.59373,-5.16598 -4.26757,-12.80265 -0.67381,-7.86128 -0.67381,-15.72256 0,-11.90423 -3.36913,-19.09168 -3.36912,-7.41207 -11.90421,-7.41207 -7.63667,0 -11.2304,7.41207 -3.59373,7.18745 -3.59373,19.09168 0,7.86128 -0.67384,15.49795 -0.44921,7.63667 -4.04294,12.80266 -3.59373,4.94137 -13.02726,4.94137 -6.96286,0 -11.67961,-5.16598 -4.49217,-5.16599 -6.96285,-13.47648 -2.47068,-8.3105 -3.59373,-17.96864 -0.89842,-9.65815 -0.89842,-18.64247 0,-8.98432 0.89842,-18.41785 0.89844,-9.43354 3.14452,-17.51943 2.47068,-8.08588 6.96285,-13.02726 4.49215,-4.94138 11.67961,-4.94138 12.80266,0 15.94715,11.67962 2.69531,-2.9199 8.53512,-5.39059 6.0644,-2.6953 13.70107,-2.6953 17.29484,0 28.30063,8.75971 11.00577,8.75972 15.94715,24.25767 5.16599,15.27334 4.94139,35.48806 0,10.33197 -2.02147,18.86707 -1.79687,8.3105 -6.51365,13.47648 -4.49215,4.94138 -12.80263,4.94138 z"/></clipPath><clipPath id="clipPath5" clipPathUnits="userSpaceOnUse"><path style="font-size:224.608px;line-height:393.415px;font-family:'Cherry Bomb One';-inkscape-font-specification:'Cherry Bomb One';letter-spacing:0;fill:#259eb4;fill-opacity:1;stroke:none;stroke-width:2.11667;stroke-linecap:square;paint-order:stroke fill markers" id="path8" d="m 452.78682,224.36663 q -8.98432,0 -12.80266,-4.94138 -3.59373,-5.16598 -4.26757,-12.80265 -0.67381,-7.86128 -0.67381,-15.72256 0,-11.90423 -3.36913,-19.09168 -3.36912,-7.41207 -11.90421,-7.41207 -7.63667,0 -11.2304,7.41207 -3.59373,7.18745 -3.59373,19.09168 0,7.86128 -0.67384,15.49795 -0.44921,7.63667 -4.04294,12.80266 -3.59373,4.94137 -13.02726,4.94137 -6.96286,0 -11.67961,-5.16598 -4.49217,-5.16599 -6.96285,-13.47648 -2.47068,-8.3105 -3.59373,-17.96864 -0.89842,-9.65815 -0.89842,-18.64247 0,-8.98432 0.89842,-18.41785 0.89844,-9.43354 3.14452,-17.51943 2.47068,-8.08588 6.96285,-13.02726 4.49215,-4.94138 11.67961,-4.94138 12.80266,0 15.94715,11.67962 2.69531,-2.9199 8.53512,-5.39059 6.0644,-2.6953 13.70107,-2.6953 17.29484,0 28.30063,8.75971 11.00577,8.75972 15.94715,24.25767 5.16599,15.27334 4.94139,35.48806 0,10.33197 -2.02147,18.86707 -1.79687,8.3105 -6.51365,13.47648 -4.49215,4.94138 -12.80263,4.94138 z"/></clipPath><clipPath id="clipPath8" clipPathUnits="userSpaceOnUse"><path style="font-size:224.608px;line-height:393.415px;font-family:'Cherry Bomb One';-inkscape-font-specification:'Cherry Bomb One';letter-spacing:0;fill:#259eb4;fill-opacity:1;stroke:none;stroke-width:2.11667;stroke-linecap:square;paint-order:stroke fill markers" id="path11" d="m 452.78682,224.36663 q -8.98432,0 -12.80266,-4.94138 -3.59373,-5.16598 -4.26757,-12.80265 -0.67381,-7.86128 -0.67381,-15.72256 0,-11.90423 -3.36913,-19.09168 -3.36912,-7.41207 -11.90421,-7.41207 -7.63667,0 -11.2304,7.41207 -3.59373,7.18745 -3.59373,19.09168 0,7.86128 -0.67384,15.49795 -0.44921,7.63667 -4.04294,12.80266 -3.59373,4.94137 -13.02726,4.94137 -6.96286,0 -11.67961,-5.16598 -4.49217,-5.16599 -6.96285,-13.47648 -2.47068,-8.3105 -3.59373,-17.96864 -0.89842,-9.65815 -0.89842,-18.64247 0,-8.98432 0.89842,-18.41785 0.89844,-9.43354 3.14452,-17.51943 2.47068,-8.08588 6.96285,-13.02726 4.49215,-4.94138 11.67961,-4.94138 12.80266,0 15.94715,11.67962 2.69531,-2.9199 8.53512,-5.39059 6.0644,-2.6953 13.70107,-2.6953 17.29484,0 28.30063,8.75971 11.00577,8.75972 15.94715,24.25767 5.16599,15.27334 4.94139,35.48806 0,10.33197 -2.02147,18.86707 -1.79687,8.3105 -6.51365,13.47648 -4.49215,4.94138 -12.80263,4.94138 z"/></clipPath><clipPath id="clipPath11" clipPathUnits="userSpaceOnUse"><path style="font-size:224.608px;line-height:393.415px;font-family:'Cherry Bomb One';-inkscape-font-specification:'Cherry Bomb One';letter-spacing:0;fill:#259eb4;fill-opacity:1;stroke:none;stroke-width:2.11667;stroke-linecap:square;paint-order:stroke fill markers" id="path12" d="m 452.78682,224.36663 q -8.98432,0 -12.80266,-4.94138 -3.59373,-5.16598 -4.26757,-12.80265 -0.67381,-7.86128 -0.67381,-15.72256 0,-11.90423 -3.36913,-19.09168 -3.36912,-7.41207 -11.90421,-7.41207 -7.63667,0 -11.2304,7.41207 -3.59373,7.18745 -3.59373,19.09168 0,7.86128 -0.67384,15.49795 -0.44921,7.63667 -4.04294,12.80266 -3.59373,4.94137 -13.02726,4.94137 -6.96286,0 -11.67961,-5.16598 -4.49217,-5.16599 -6.96285,-13.47648 -2.47068,-8.3105 -3.59373,-17.96864 -0.89842,-9.65815 -0.89842,-18.64247 0,-8.98432 0.89842,-18.41785 0.89844,-9.43354 3.14452,-17.51943 2.47068,-8.08588 6.96285,-13.02726 4.49215,-4.94138 11.67961,-4.94138 12.80266,0 15.94715,11.67962 2.69531,-2.9199 8.53512,-5.39059 6.0644,-2.6953 13.70107,-2.6953 17.29484,0 28.30063,8.75971 11.00577,8.75972 15.94715,24.25767 5.16599,15.27334 4.94139,35.48806 0,10.33197 -2.02147,18.86707 -1.79687,8.3105 -6.51365,13.47648 -4.49215,4.94138 -12.80263,4.94138 z"/></clipPath><clipPath id="clipPath12" clipPathUnits="userSpaceOnUse"><path style="font-size:224.608px;line-height:393.415px;font-family:'Cherry Bomb One';-inkscape-font-specification:'Cherry Bomb One';letter-spacing:0;fill:#259eb4;fill-opacity:1;stroke:none;stroke-width:2.11667;stroke-linecap:square;paint-order:stroke fill markers" id="path14" d="m 452.78682,224.36663 q -8.98432,0 -12.80266,-4.94138 -3.59373,-5.16598 -4.26757,-12.80265 -0.67381,-7.86128 -0.67381,-15.72256 0,-11.90423 -3.36913,-19.09168 -3.36912,-7.41207 -11.90421,-7.41207 -7.63667,0 -11.2304,7.41207 -3.59373,7.18745 -3.59373,19.09168 0,7.86128 -0.67384,15.49795 -0.44921,7.63667 -4.04294,12.80266 -3.59373,4.94137 -13.02726,4.94137 -6.96286,0 -11.67961,-5.16598 -4.49217,-5.16599 -6.96285,-13.47648 -2.47068,-8.3105 -3.59373,-17.96864 -0.89842,-9.65815 -0.89842,-18.64247 0,-8.98432 0.89842,-18.41785 0.89844,-9.43354 3.14452,-17.51943 2.47068,-8.08588 6.96285,-13.02726 4.49215,-4.94138 11.67961,-4.94138 12.80266,0 15.94715,11.67962 2.69531,-2.9199 8.53512,-5.39059 6.0644,-2.6953 13.70107,-2.6953 17.29484,0 28.30063,8.75971 11.00577,8.75972 15.94715,24.25767 5.16599,15.27334 4.94139,35.48806 0,10.33197 -2.02147,18.86707 -1.79687,8.3105 -6.51365,13.47648 -4.49215,4.94138 -12.80263,4.94138 z"/></clipPath><clipPath id="clipPath15" clipPathUnits="userSpaceOnUse"><path style="font-size:224.608px;line-height:393.415px;font-family:'Cherry Bomb One';-inkscape-font-specification:'Cherry Bomb One';letter-spacing:0;fill:#259eb4;fill-opacity:1;stroke:none;stroke-width:2.11667;stroke-linecap:square;paint-order:stroke fill markers" id="path16" d="m 511.63431,224.36663 q -8.98433,0 -13.47647,-5.16598 -4.26755,-5.16599 -5.83981,-15.72256 -1.34765,-10.78119 -1.57226,-27.62679 0,-16.8456 1.34763,-27.62678 1.57226,-10.78119 6.06444,-15.72256 4.49214,-5.16599 13.47647,-5.16599 8.98432,0 13.25187,5.16599 4.49217,4.94137 6.06443,15.72256 1.57223,10.78118 1.57223,27.62678 0.22461,16.8456 -1.34762,27.62679 -1.57226,10.55657 -6.06444,15.72256 -4.49215,5.16598 -13.47647,5.16598 z"/></clipPath><clipPath id="clipPath17" clipPathUnits="userSpaceOnUse"><path style="font-size:224.608px;line-height:393.415px;font-family:'Cherry Bomb One';-inkscape-font-specification:'Cherry Bomb One';letter-spacing:0;fill:#259eb4;fill-opacity:1;stroke:none;stroke-width:2.11667;stroke-linecap:square;paint-order:stroke fill markers" id="path17" d="m 681.32926,224.3022 q -8.98433,0 -13.47647,-5.16597 -4.26755,-5.16599 -5.83981,-15.72257 -1.34765,-10.78118 -1.57226,-27.62678 0,-16.8456 1.34763,-27.62678 1.57226,-10.78119 6.06444,-15.72257 4.49214,-5.16598 13.47647,-5.16598 8.98432,0 13.25187,5.16598 4.49217,4.94138 6.06443,15.72257 1.57223,10.78118 1.57223,27.62678 0.22461,16.8456 -1.34762,27.62678 -1.57226,10.55658 -6.06444,15.72257 -4.49215,5.16597 -13.47647,5.16597 z"/></clipPath><clipPath id="clipPath18" clipPathUnits="userSpaceOnUse"><path style="font-size:224.608px;line-height:393.415px;font-family:'Cherry Bomb One';-inkscape-font-specification:'Cherry Bomb One';letter-spacing:0;fill:#259eb4;fill-opacity:1;stroke:none;stroke-width:2.11667;stroke-linecap:square;paint-order:stroke fill markers" id="path19" d="m 573.177,224.36663 q -7.63667,0 -12.57805,-4.94138 -4.71678,-5.16598 -7.18746,-13.70108 -2.47068,-8.53511 -3.36913,-19.5409 -0.89842,-11.00579 -0.89842,-22.68541 0,-7.86128 0.22461,-15.94717 0.44921,-8.31049 2.24607,-15.27334 2.02147,-6.96285 6.51362,-11.2304 4.71678,-4.49216 13.25187,-4.49216 6.06443,0 11.00582,2.9199 4.94136,2.6953 6.28901,8.3105 5.16599,-4.71677 13.02727,-6.73824 8.08587,-2.24608 16.62099,-2.24608 7.18746,0 14.59952,3.59373 7.41207,3.36912 12.57803,9.43353 5.16599,6.06442 5.16599,13.70109 0,6.51363 -4.94136,12.35344 -4.71678,5.83981 -13.4765,5.83981 -3.81831,0 -6.28901,-0.89843 -2.47068,-1.12304 -4.71676,-2.02147 -2.2461,-0.89844 -5.39059,-0.89844 -8.31051,0 -15.27337,6.73824 -6.73822,6.51364 -6.73822,17.74404 0,5.8398 -0.44921,12.80265 -0.22463,6.73824 -2.02147,13.02727 -1.57226,6.28902 -5.83983,10.33196 -4.26754,3.81834 -12.35342,3.81834 z"/></clipPath><clipPath id="clipPath19" clipPathUnits="userSpaceOnUse"><path style="font-size:224.608px;line-height:393.415px;font-family:'Cherry Bomb One';-inkscape-font-specification:'Cherry Bomb One';letter-spacing:0;fill:#259eb4;fill-opacity:1;stroke:none;stroke-width:2.11667;stroke-linecap:square;paint-order:stroke fill markers" id="path20" d="m 573.177,224.36663 q -7.63667,0 -12.57805,-4.94138 -4.71678,-5.16598 -7.18746,-13.70108 -2.47068,-8.53511 -3.36913,-19.5409 -0.89842,-11.00579 -0.89842,-22.68541 0,-7.86128 0.22461,-15.94717 0.44921,-8.31049 2.24607,-15.27334 2.02147,-6.96285 6.51362,-11.2304 4.71678,-4.49216 13.25187,-4.49216 6.06443,0 11.00582,2.9199 4.94136,2.6953 6.28901,8.3105 5.16599,-4.71677 13.02727,-6.73824 8.08587,-2.24608 16.62099,-2.24608 7.18746,0 14.59952,3.59373 7.41207,3.36912 12.57803,9.43353 5.16599,6.06442 5.16599,13.70109 0,6.51363 -4.94136,12.35344 -4.71678,5.83981 -13.4765,5.83981 -3.81831,0 -6.28901,-0.89843 -2.47068,-1.12304 -4.71676,-2.02147 -2.2461,-0.89844 -5.39059,-0.89844 -8.31051,0 -15.27337,6.73824 -6.73822,6.51364 -6.73822,17.74404 0,5.8398 -0.44921,12.80265 -0.22463,6.73824 -2.02147,13.02727 -1.57226,6.28902 -5.83983,10.33196 -4.26754,3.81834 -12.35342,3.81834 z"/></clipPath><clipPath id="clipPath20" clipPathUnits="userSpaceOnUse"><path style="font-size:224.608px;line-height:393.415px;font-family:'Cherry Bomb One';-inkscape-font-specification:'Cherry Bomb One';letter-spacing:0;fill:#259eb4;fill-opacity:1;stroke:none;stroke-width:2.11667;stroke-linecap:square;paint-order:stroke fill markers" id="path21" d="m 573.177,224.36663 q -7.63667,0 -12.57805,-4.94138 -4.71678,-5.16598 -7.18746,-13.70108 -2.47068,-8.53511 -3.36913,-19.5409 -0.89842,-11.00579 -0.89842,-22.68541 0,-7.86128 0.22461,-15.94717 0.44921,-8.31049 2.24607,-15.27334 2.02147,-6.96285 6.51362,-11.2304 4.71678,-4.49216 13.25187,-4.49216 6.06443,0 11.00582,2.9199 4.94136,2.6953 6.28901,8.3105 5.16599,-4.71677 13.02727,-6.73824 8.08587,-2.24608 16.62099,-2.24608 7.18746,0 14.59952,3.59373 7.41207,3.36912 12.57803,9.43353 5.16599,6.06442 5.16599,13.70109 0,6.51363 -4.94136,12.35344 -4.71678,5.83981 -13.4765,5.83981 -3.81831,0 -6.28901,-0.89843 -2.47068,-1.12304 -4.71676,-2.02147 -2.2461,-0.89844 -5.39059,-0.89844 -8.31051,0 -15.27337,6.73824 -6.73822,6.51364 -6.73822,17.74404 0,5.8398 -0.44921,12.80265 -0.22463,6.73824 -2.02147,13.02727 -1.57226,6.28902 -5.83983,10.33196 -4.26754,3.81834 -12.35342,3.81834 z"/></clipPath><clipPath id="clipPath21" clipPathUnits="userSpaceOnUse"><path style="font-size:224.608px;line-height:393.415px;font-family:'Cherry Bomb One';-inkscape-font-specification:'Cherry Bomb One';letter-spacing:0;fill:#259eb4;fill-opacity:1;stroke:none;stroke-width:2.11667;stroke-linecap:square;paint-order:stroke fill markers" id="path22" d="m 573.177,224.36663 q -7.63667,0 -12.57805,-4.94138 -4.71678,-5.16598 -7.18746,-13.70108 -2.47068,-8.53511 -3.36913,-19.5409 -0.89842,-11.00579 -0.89842,-22.68541 0,-7.86128 0.22461,-15.94717 0.44921,-8.31049 2.24607,-15.27334 2.02147,-6.96285 6.51362,-11.2304 4.71678,-4.49216 13.25187,-4.49216 6.06443,0 11.00582,2.9199 4.94136,2.6953 6.28901,8.3105 5.16599,-4.71677 13.02727,-6.73824 8.08587,-2.24608 16.62099,-2.24608 7.18746,0 14.59952,3.59373 7.41207,3.36912 12.57803,9.43353 5.16599,6.06442 5.16599,13.70109 0,6.51363 -4.94136,12.35344 -4.71678,5.83981 -13.4765,5.83981 -3.81831,0 -6.28901,-0.89843 -2.47068,-1.12304 -4.71676,-2.02147 -2.2461,-0.89844 -5.39059,-0.89844 -8.31051,0 -15.27337,6.73824 -6.73822,6.51364 -6.73822,17.74404 0,5.8398 -0.44921,12.80265 -0.22463,6.73824 -2.02147,13.02727 -1.57226,6.28902 -5.83983,10.33196 -4.26754,3.81834 -12.35342,3.81834 z"/></clipPath><clipPath id="clipPath23" clipPathUnits="userSpaceOnUse"><path style="font-size:224.608px;line-height:393.415px;font-family:'Cherry Bomb One';-inkscape-font-specification:'Cherry Bomb One';letter-spacing:0;fill:#259eb4;fill-opacity:1;stroke:none;stroke-width:2.11667;stroke-linecap:square;paint-order:stroke fill markers" id="path25" d="m 681.43807,224.36663 q -8.98432,0 -13.47647,-5.16598 -4.26757,-5.16599 -5.83983,-15.72256 -1.34763,-10.78119 -1.57226,-27.62679 0,-16.8456 1.34765,-27.62678 1.57226,-10.78119 6.06444,-15.72256 4.49215,-5.16599 13.47647,-5.16599 8.98432,0 13.25187,5.16599 4.49215,4.94137 6.06441,15.72256 1.57226,10.78118 1.57226,27.62678 0.2246,16.8456 -1.34766,27.62679 -1.57223,10.55657 -6.06441,15.72256 -4.49215,5.16598 -13.47647,5.16598 z"/></clipPath><clipPath id="clipPath25" clipPathUnits="userSpaceOnUse"><path style="font-size:224.608px;line-height:393.415px;font-family:'Cherry Bomb One';-inkscape-font-specification:'Cherry Bomb One';letter-spacing:0;fill:#259eb4;fill-opacity:1;stroke:none;stroke-width:2.11667;stroke-linecap:square;paint-order:stroke fill markers" id="path26" d="m 681.43807,224.36663 q -8.98432,0 -13.47647,-5.16598 -4.26757,-5.16599 -5.83983,-15.72256 -1.34763,-10.78119 -1.57226,-27.62679 0,-16.8456 1.34765,-27.62678 1.57226,-10.78119 6.06444,-15.72256 4.49215,-5.16599 13.47647,-5.16599 8.98432,0 13.25187,5.16599 4.49215,4.94137 6.06441,15.72256 1.57226,10.78118 1.57226,27.62678 0.2246,16.8456 -1.34766,27.62679 -1.57223,10.55657 -6.06441,15.72256 -4.49215,5.16598 -13.47647,5.16598 z"/></clipPath><clipPath id="clipPath34" clipPathUnits="userSpaceOnUse"><path id="path35" style="fill:#259eb4;fill-opacity:1;stroke-width:2.11667;stroke-linecap:square;paint-order:stroke fill markers" d="m 169.33334,220.13334 c 0,8.46667 -4.23334,16.93333 -33.86667,16.93333 -29.63333,0 -33.86667,-8.46666 -33.86667,-16.93333 0,-12.7 8.46667,-21.16667 33.86667,-21.16667 25.4,0 33.86667,8.46667 33.86667,21.16667 z"/></clipPath><clipPath id="clipPath35" clipPathUnits="userSpaceOnUse"><path id="path36" style="fill:#259eb4;fill-opacity:1;stroke-width:2.11667;stroke-linecap:square;paint-order:stroke fill markers" d="m 715.91343,141.3418 c 0,8.46667 -4.23334,16.93332 -33.86667,16.93332 -29.63333,0 -33.86667,-8.46665 -33.86667,-16.93332 0,-12.7 8.46667,-21.16668 33.86667,-21.16668 25.4,0 33.86667,8.46668 33.86667,21.16668 z"/></clipPath><filter style="color-interpolation-filters:sRGB" id="filter61" width="1.865" height="1.626" x="-.432" y="-.313"><feGaussianBlur id="feGaussianBlur61" stdDeviation="18.493"/></filter></defs><g id="layer1" transform="translate(255.60477,-19.034522)"><g id="g71" transform="matrix(0.53845513,0,0,0.53845513,-260.51955,13.25883)"><g id="g4"><path id="path1" style="display:inline;fill:#2d2d2d;fill-opacity:1;stroke-width:2.11667;stroke-linecap:square;paint-order:stroke fill markers" d="m 131.35535,193.41317 c -8.42529,0.21555 -17.07195,1.23898 -24.70899,5.03516 -6.56852,3.28887 -11.780948,9.56904 -13.037575,16.89416 -1.12503,5.50318 -0.847502,11.50687 1.819693,16.54193 2.619641,4.74577 7.282642,8.08459 12.343352,9.82958 7.20278,2.70364 14.97875,3.20323 22.59699,3.46523 7.89843,0.20478 15.85819,-0.17121 23.61105,-1.76836 5.63625,-1.25422 11.31076,-3.51115 15.35105,-7.77992 3.29144,-3.52234 5.05422,-8.32066 5.11255,-13.1185 0.31661,-6.70741 -1.69285,-13.72981 -6.39837,-18.65616 -4.18578,-4.5464 -10.04779,-7.11576 -15.95626,-8.569 -6.77112,-1.66654 -13.79057,-1.92415 -20.73349,-1.87412 z"/><path id="path4" style="display:inline;mix-blend-mode:normal;fill:#2d2d2d;fill-opacity:1;stroke:none;stroke-width:2.11667;stroke-linecap:square;stroke-opacity:1;paint-order:stroke fill markers" d="m 98.902224,36.772549 c -6.995893,0.126233 -13.62619,4.553849 -16.638172,10.834978 -3.470673,6.368967 -4.476788,13.68672 -5.225527,20.799337 -1.546324,15.903589 -0.51861,31.905986 -1.354082,47.842876 -0.544064,12.91133 -1.490643,25.96714 0.724426,38.77934 1.594594,9.15149 5.382372,18.1514 11.945332,24.8552 5.649973,5.83947 12.892719,10.17523 20.761639,12.23377 4.29395,0.94959 9.28733,-0.57303 11.73776,-4.36606 2.38164,-3.59662 2.34796,-8.32076 0.82613,-12.24486 -1.20789,-3.11502 -2.64307,-6.14315 -3.64842,-9.33584 -1.12185,-3.39459 -1.94228,-6.99797 -2.3869,-10.47882 -0.55748,-4.05967 -0.49766,-8.22945 -0.15435,-12.24032 0.58298,-6.27022 1.46357,-12.5645 3.39036,-18.57849 0.79153,-2.26867 1.52928,-4.64049 3.02766,-6.55814 5.54574,0.77098 10.63142,3.47347 15.10865,6.73077 1.80507,1.34294 3.49258,2.79574 5.00233,4.33482 4.14952,4.21383 7.69916,9.25861 9.14438,15.0671 1.23316,4.77068 1.46924,9.85005 0.41871,14.67703 -1.02032,4.50982 -3.25363,8.60065 -5.45452,12.62181 -1.87577,3.646 -3.05511,7.8744 -2.17051,11.96837 0.96209,4.20638 4.82507,7.5927 9.1658,7.8093 4.52117,0.38592 8.79301,-1.6188 12.64582,-3.75368 9.91038,-5.51624 17.57193,-14.7796 21.44242,-25.41236 3.56981,-9.82442 4.74142,-20.45137 3.89537,-30.84701 -1.23706,-11.29301 -6.03879,-21.87272 -12.00583,-31.42104 -8.7119,-13.884894 -20.08721,-25.908588 -32.38582,-36.666079 -9.92644,-8.582365 -20.62052,-16.394651 -32.3549,-22.32888 -4.66406,-2.261816 -9.65523,-4.278849 -14.913576,-4.33312 -0.18139,0.0033 -0.36279,0.0067 -0.54418,0.01 z"/></g><g id="g26" clip-path="none" style="display:inline"><path id="path2" style="fill:#259eb4;fill-opacity:1;stroke-width:2.11667;stroke-linecap:square;paint-order:stroke fill markers" d="m 169.33334,220.13334 c 0,8.46667 -4.23334,16.93333 -33.86667,16.93333 -29.63333,0 -33.86667,-8.46666 -33.86667,-16.93333 0,-12.7 8.46667,-21.16667 33.86667,-21.16667 25.4,0 33.86667,8.46667 33.86667,21.16667 z"/><path style="mix-blend-mode:normal;fill:#92cfda;fill-opacity:1;fill-rule:nonzero;stroke:none;stroke-width:1.292;stroke-linecap:round;stroke-linejoin:round;stroke-opacity:1;filter:url(#filter27)" id="path24" d="m 649.45734,133.81724 c 0.30861,-0.52382 1.24567,-1.10943 2.25778,-1.9344 0.71834,-0.58551 1.60294,-1.1585 2.689,-1.71704 1.33566,-0.68692 2.82604,-1.27591 4.41873,-1.81477 0.91309,-0.30893 1.90318,-0.61043 2.97552,-0.89949 2.75909,-0.74374 5.93213,-1.36936 9.45117,-1.81993 3.4485,-0.44153 7.02191,-0.68799 10.54487,-0.74159 0.11888,-0.002 0.23758,-0.003 0.35611,-0.005 3.42087,-0.0395 6.87572,0.10105 10.20745,0.42751 3.52675,0.34557 6.72,0.8799 9.50577,1.55294 1.13268,0.27365 2.17777,0.56526 3.14025,0.86932 1.5536,0.49082 3.01719,1.0374 4.3387,1.68661 1.10269,0.54172 2.00605,1.10621 2.74422,1.69041 1.03948,0.82267 1.92442,1.4682 2.24848,1.99812 -0.19311,-0.57592 -0.56732,-1.6128 -1.44388,-2.71822 -0.62575,-0.78911 -1.46647,-2.06647 -2.53663,-2.85214 -1.27528,-0.93627 -2.69843,-2.19648 -4.28815,-2.8662 -0.98885,-0.41658 -2.24548,-1.23914 -3.41727,-1.59811 -2.87657,-0.88121 -5.61102,-1.58246 -9.24402,-2.0046 -3.43498,-0.39913 -7.78163,-0.93367 -11.29835,-0.89735 -0.12203,0.001 -0.24424,0.003 -0.36663,0.005 -3.62086,0.0519 -8.29298,0.61115 -11.8461,1.12441 -3.62258,0.5233 -6.54204,1.50557 -9.38537,2.45693 -1.10746,0.37055 -2.4353,1.22472 -3.37108,1.64065 -1.62494,0.72224 -2.75555,1.66679 -4.03455,2.65099 -1.04655,0.80534 -1.65707,2.24134 -2.25723,3.03279 -0.84139,1.10955 -1.24261,2.1654 -1.41747,2.7334 z" clip-path="url(#clipPath35)" transform="translate(-546.58009,78.791545)"/><path style="mix-blend-mode:normal;fill:#134f5a;fill-opacity:1;fill-rule:nonzero;stroke:none;stroke-width:1.292;stroke-linecap:round;stroke-linejoin:round;filter:url(#filter60)" id="path59" d="m 102.62873,226.09888 c 0.21837,0.59119 0.61147,1.63901 1.62645,2.90953 0.71917,0.90024 1.67343,1.81283 2.88011,2.66136 0.63885,0.44924 1.326,0.86437 2.04583,1.23422 1.73607,0.89199 3.88794,1.6902 6.44451,2.35832 3.15978,0.82576 6.73316,1.3998 10.52375,1.74639 2.77174,0.25344 5.543,0.37487 8.21345,0.40382 1.03453,0.0112 2.07172,0.008 3.10774,-0.0105 3.80268,-0.0675 7.55355,-0.33754 11.05616,-0.82447 3.61058,-0.50195 6.89851,-1.22612 9.69476,-2.17075 0.18263,-0.0617 0.36305,-0.1243 0.54123,-0.1878 2.50252,-0.89183 4.82056,-2.11237 6.51802,-3.52561 0.94359,-0.78561 1.6151,-1.56242 2.06492,-2.2946 0.63371,-1.03151 0.74175,-1.832 0.76927,-2.29791 -0.27946,0.40619 -0.77594,0.89664 -1.67451,1.38662 -0.63117,0.34418 -1.42595,0.67135 -2.41953,0.98728 -1.84319,0.58607 -3.98976,1.02107 -6.42445,1.47239 -0.16947,0.0314 -0.34092,0.0627 -0.51435,0.094 -2.66528,0.48001 -5.74678,0.9266 -9.18723,1.27047 -3.33185,0.33301 -6.89061,0.55814 -10.52391,0.6262 -0.98784,0.0185 -1.97654,0.0253 -2.96263,0.0197 -2.54936,-0.0146 -5.17908,-0.11853 -7.80849,-0.31818 -3.6162,-0.27458 -6.92286,-0.70577 -9.89494,-1.23993 -2.40547,-0.43232 -4.36461,-0.8899 -6.04479,-1.31771 -0.70208,-0.17876 -1.35634,-0.34389 -2.02406,-0.52251 -1.24448,-0.33289 -2.31304,-0.65483 -3.26912,-1.01993 -1.3453,-0.51373 -2.22471,-1.029 -2.73819,-1.44035 z" clip-path="url(#clipPath34)"/></g><path style="display:inline;mix-blend-mode:normal;fill:#3ba8bc;fill-opacity:1;stroke:none;stroke-width:2.11667;stroke-linecap:square;stroke-opacity:1;paint-order:stroke fill markers" id="path3" d="m 101.6,42.333334 c 16.93334,0 84.66667,50.800005 84.66667,93.133336 0,28.57209 -13.39181,41.07402 -25.11117,46.54433 -8.87807,4.14406 -11.33775,-1.382 -6.3999,-9.88879 3.31767,-5.71559 6.11107,-12.63293 6.11107,-19.72221 0,-12.7 -4.23333,-21.16666 -12.7,-29.63333 -8.46667,-8.46667 -19.34216,-12.70001 -25.4,-12.7 -8.46666,1e-5 -12.7,24.8856 -12.7,38.1 0,10.52973 3.14292,20.01182 6.30176,26.88277 2.97912,6.48004 0.48516,10.93086 -6.19604,8.47352 -7.29956,-2.68477 -16.052373,-7.98293 -21.272388,-18.42296 -8.466666,-16.93333 -4.233333,-41.3022 -4.233333,-63.5 0,-33.866665 -7e-6,-59.266666 16.933331,-59.266666 z"/><path style="display:inline;mix-blend-mode:normal;fill:#3ba8bc;fill-opacity:.151125;stroke:none;stroke-width:2.11667;stroke-linecap:square;stroke-opacity:1;paint-order:stroke fill markers;filter:url(#filter70)" id="path67" d="m 101.6,42.333334 c 16.93334,0 84.66667,50.800005 84.66667,93.133336 0,28.57209 -13.39181,41.07402 -25.11117,46.54433 -8.87807,4.14406 -11.33775,-1.382 -6.3999,-9.88879 3.31767,-5.71559 6.11107,-12.63293 6.11107,-19.72221 0,-12.7 -4.23333,-21.16666 -12.7,-29.63333 -8.46667,-8.46667 -19.34216,-12.70001 -25.4,-12.7 -8.46666,1e-5 -12.7,24.8856 -12.7,38.1 0,10.52973 3.14292,20.01182 6.30176,26.88277 2.97912,6.48004 0.48516,10.93086 -6.19604,8.47352 -7.29956,-2.68477 -16.052373,-7.98293 -21.272388,-18.42296 -8.466666,-16.93333 -4.233333,-41.3022 -4.233333,-63.5 0,-33.866665 -7e-6,-59.266666 16.933331,-59.266666 z"/></g></g></svg>