<svg xmlns="http://www.w3.org/2000/svg" xmlns:svg="http://www.w3.org/2000/svg" id="svg1" width="253.465" height="134.927" version="1.1" viewBox="0 0 123.866 37.867"><defs id="defs1"><filter style="color-interpolation-filters:sRGB" id="filter21" width="1.703" height="2.866" x="-.351" y="-.933"><feGaussianBlur id="feGaussianBlur21" stdDeviation="5.079"/></filter><filter style="color-interpolation-filters:sRGB" id="filter22" width="1.858" height="2.299" x="-.429" y="-.649"><feGaussianBlur id="feGaussianBlur22" stdDeviation="6.59"/></filter><filter style="color-interpolation-filters:sRGB" id="filter23" width="1.83" height="2.287" x="-.415" y="-.643"><feGaussianBlur id="feGaussianBlur23" stdDeviation="7.858"/></filter><filter style="color-interpolation-filters:sRGB" id="filter24" width="1.723" height="2.852" x="-.361" y="-.926"><feGaussianBlur id="feGaussianBlur24" stdDeviation="5.269"/></filter><filter style="color-interpolation-filters:sRGB" id="filter27" width="1.617" height="4.344" x="-.309" y="-1.672"><feGaussianBlur id="feGaussianBlur26" stdDeviation="8.254"/></filter><filter style="color-interpolation-filters:sRGB" id="filter52" width="1.661" height="3.194" x="-.33" y="-1.097"><feGaussianBlur id="feGaussianBlur52" stdDeviation="4.258"/></filter><filter style="color-interpolation-filters:sRGB" id="filter53" width="1.68" height="3.049" x="-.34" y="-1.024"><feGaussianBlur id="feGaussianBlur54" stdDeviation="4.319"/></filter><filter style="color-interpolation-filters:sRGB" id="filter55" width="1.663" height="3.186" x="-.332" y="-1.093"><feGaussianBlur id="feGaussianBlur55" stdDeviation="4.426"/></filter><filter style="color-interpolation-filters:sRGB" id="filter56" width="1.692" height="2.976" x="-.346" y="-.988"><feGaussianBlur id="feGaussianBlur56" stdDeviation="4.927"/></filter><filter style="color-interpolation-filters:sRGB" id="filter57" width="2.012" height="2.065" x="-.506" y="-.532"><feGaussianBlur id="feGaussianBlur57" stdDeviation="5.826"/></filter><filter style="color-interpolation-filters:sRGB" id="filter58" width="1.643" height="3.262" x="-.321" y="-1.131"><feGaussianBlur id="feGaussianBlur58" stdDeviation="4.239"/></filter><filter style="color-interpolation-filters:sRGB" id="filter59" width="1.806" height="2.423" x="-.403" y="-.712"><feGaussianBlur id="feGaussianBlur59" stdDeviation="4.495"/></filter><filter style="color-interpolation-filters:sRGB" id="filter60" width="1.597" height="4.455" x="-.299" y="-1.727"><feGaussianBlur id="feGaussianBlur60" stdDeviation="8.147"/></filter><filter style="color-interpolation-filters:sRGB" id="filter70" width="1.884" height="1.64" x="-.442" y="-.32"><feGaussianBlur id="feGaussianBlur70" stdDeviation="18.461"/></filter><filter style="color-interpolation-filters:sRGB" id="filter72" width="1.865" height="1.626" x="-.433" y="-.313"><feGaussianBlur id="feGaussianBlur72" stdDeviation="18.509"/></filter><filter style="color-interpolation-filters:sRGB" id="filter1" width="1.914" height="2.144" x="-.457" y="-.572"><feGaussianBlur id="feGaussianBlur1" stdDeviation="8.581"/></filter><filter style="color-interpolation-filters:sRGB" id="filter2" width="2.09" height="2.774" x="-.545" y="-.887"><feGaussianBlur id="feGaussianBlur2" stdDeviation="4.32"/></filter><clipPath id="clipPath1" clipPathUnits="userSpaceOnUse"><path style="font-size:224.608px;line-height:393.415px;font-family:'Cherry Bomb One';-inkscape-font-specification:'Cherry Bomb One';letter-spacing:0;fill:#d55c44;fill-opacity:1;stroke:none;stroke-width:2.11667;stroke-linecap:square;paint-order:stroke fill markers" id="path5" d="m 452.78682,224.36663 q -8.98432,0 -12.80266,-4.94138 -3.59373,-5.16598 -4.26757,-12.80265 -0.67381,-7.86128 -0.67381,-15.72256 0,-11.90423 -3.36913,-19.09168 -3.36912,-7.41207 -11.90421,-7.41207 -7.63667,0 -11.2304,7.41207 -3.59373,7.18745 -3.59373,19.09168 0,7.86128 -0.67384,15.49795 -0.44921,7.63667 -4.04294,12.80266 -3.59373,4.94137 -13.02726,4.94137 -6.96286,0 -11.67961,-5.16598 -4.49217,-5.16599 -6.96285,-13.47648 -2.47068,-8.3105 -3.59373,-17.96864 -0.89842,-9.65815 -0.89842,-18.64247 0,-8.98432 0.89842,-18.41785 0.89844,-9.43354 3.14452,-17.51943 2.47068,-8.08588 6.96285,-13.02726 4.49215,-4.94138 11.67961,-4.94138 12.80266,0 15.94715,11.67962 2.69531,-2.9199 8.53512,-5.39059 6.0644,-2.6953 13.70107,-2.6953 17.29484,0 28.30063,8.75971 11.00577,8.75972 15.94715,24.25767 5.16599,15.27334 4.94139,35.48806 0,10.33197 -2.02147,18.86707 -1.79687,8.3105 -6.51365,13.47648 -4.49215,4.94138 -12.80263,4.94138 z"/></clipPath><clipPath id="clipPath5" clipPathUnits="userSpaceOnUse"><path style="font-size:224.608px;line-height:393.415px;font-family:'Cherry Bomb One';-inkscape-font-specification:'Cherry Bomb One';letter-spacing:0;fill:#d55c44;fill-opacity:1;stroke:none;stroke-width:2.11667;stroke-linecap:square;paint-order:stroke fill markers" id="path8" d="m 452.78682,224.36663 q -8.98432,0 -12.80266,-4.94138 -3.59373,-5.16598 -4.26757,-12.80265 -0.67381,-7.86128 -0.67381,-15.72256 0,-11.90423 -3.36913,-19.09168 -3.36912,-7.41207 -11.90421,-7.41207 -7.63667,0 -11.2304,7.41207 -3.59373,7.18745 -3.59373,19.09168 0,7.86128 -0.67384,15.49795 -0.44921,7.63667 -4.04294,12.80266 -3.59373,4.94137 -13.02726,4.94137 -6.96286,0 -11.67961,-5.16598 -4.49217,-5.16599 -6.96285,-13.47648 -2.47068,-8.3105 -3.59373,-17.96864 -0.89842,-9.65815 -0.89842,-18.64247 0,-8.98432 0.89842,-18.41785 0.89844,-9.43354 3.14452,-17.51943 2.47068,-8.08588 6.96285,-13.02726 4.49215,-4.94138 11.67961,-4.94138 12.80266,0 15.94715,11.67962 2.69531,-2.9199 8.53512,-5.39059 6.0644,-2.6953 13.70107,-2.6953 17.29484,0 28.30063,8.75971 11.00577,8.75972 15.94715,24.25767 5.16599,15.27334 4.94139,35.48806 0,10.33197 -2.02147,18.86707 -1.79687,8.3105 -6.51365,13.47648 -4.49215,4.94138 -12.80263,4.94138 z"/></clipPath><clipPath id="clipPath8" clipPathUnits="userSpaceOnUse"><path style="font-size:224.608px;line-height:393.415px;font-family:'Cherry Bomb One';-inkscape-font-specification:'Cherry Bomb One';letter-spacing:0;fill:#d55c44;fill-opacity:1;stroke:none;stroke-width:2.11667;stroke-linecap:square;paint-order:stroke fill markers" id="path11" d="m 452.78682,224.36663 q -8.98432,0 -12.80266,-4.94138 -3.59373,-5.16598 -4.26757,-12.80265 -0.67381,-7.86128 -0.67381,-15.72256 0,-11.90423 -3.36913,-19.09168 -3.36912,-7.41207 -11.90421,-7.41207 -7.63667,0 -11.2304,7.41207 -3.59373,7.18745 -3.59373,19.09168 0,7.86128 -0.67384,15.49795 -0.44921,7.63667 -4.04294,12.80266 -3.59373,4.94137 -13.02726,4.94137 -6.96286,0 -11.67961,-5.16598 -4.49217,-5.16599 -6.96285,-13.47648 -2.47068,-8.3105 -3.59373,-17.96864 -0.89842,-9.65815 -0.89842,-18.64247 0,-8.98432 0.89842,-18.41785 0.89844,-9.43354 3.14452,-17.51943 2.47068,-8.08588 6.96285,-13.02726 4.49215,-4.94138 11.67961,-4.94138 12.80266,0 15.94715,11.67962 2.69531,-2.9199 8.53512,-5.39059 6.0644,-2.6953 13.70107,-2.6953 17.29484,0 28.30063,8.75971 11.00577,8.75972 15.94715,24.25767 5.16599,15.27334 4.94139,35.48806 0,10.33197 -2.02147,18.86707 -1.79687,8.3105 -6.51365,13.47648 -4.49215,4.94138 -12.80263,4.94138 z"/></clipPath><clipPath id="clipPath11" clipPathUnits="userSpaceOnUse"><path style="font-size:224.608px;line-height:393.415px;font-family:'Cherry Bomb One';-inkscape-font-specification:'Cherry Bomb One';letter-spacing:0;fill:#d55c44;fill-opacity:1;stroke:none;stroke-width:2.11667;stroke-linecap:square;paint-order:stroke fill markers" id="path12" d="m 452.78682,224.36663 q -8.98432,0 -12.80266,-4.94138 -3.59373,-5.16598 -4.26757,-12.80265 -0.67381,-7.86128 -0.67381,-15.72256 0,-11.90423 -3.36913,-19.09168 -3.36912,-7.41207 -11.90421,-7.41207 -7.63667,0 -11.2304,7.41207 -3.59373,7.18745 -3.59373,19.09168 0,7.86128 -0.67384,15.49795 -0.44921,7.63667 -4.04294,12.80266 -3.59373,4.94137 -13.02726,4.94137 -6.96286,0 -11.67961,-5.16598 -4.49217,-5.16599 -6.96285,-13.47648 -2.47068,-8.3105 -3.59373,-17.96864 -0.89842,-9.65815 -0.89842,-18.64247 0,-8.98432 0.89842,-18.41785 0.89844,-9.43354 3.14452,-17.51943 2.47068,-8.08588 6.96285,-13.02726 4.49215,-4.94138 11.67961,-4.94138 12.80266,0 15.94715,11.67962 2.69531,-2.9199 8.53512,-5.39059 6.0644,-2.6953 13.70107,-2.6953 17.29484,0 28.30063,8.75971 11.00577,8.75972 15.94715,24.25767 5.16599,15.27334 4.94139,35.48806 0,10.33197 -2.02147,18.86707 -1.79687,8.3105 -6.51365,13.47648 -4.49215,4.94138 -12.80263,4.94138 z"/></clipPath><clipPath id="clipPath12" clipPathUnits="userSpaceOnUse"><path style="font-size:224.608px;line-height:393.415px;font-family:'Cherry Bomb One';-inkscape-font-specification:'Cherry Bomb One';letter-spacing:0;fill:#d55c44;fill-opacity:1;stroke:none;stroke-width:2.11667;stroke-linecap:square;paint-order:stroke fill markers" id="path14" d="m 452.78682,224.36663 q -8.98432,0 -12.80266,-4.94138 -3.59373,-5.16598 -4.26757,-12.80265 -0.67381,-7.86128 -0.67381,-15.72256 0,-11.90423 -3.36913,-19.09168 -3.36912,-7.41207 -11.90421,-7.41207 -7.63667,0 -11.2304,7.41207 -3.59373,7.18745 -3.59373,19.09168 0,7.86128 -0.67384,15.49795 -0.44921,7.63667 -4.04294,12.80266 -3.59373,4.94137 -13.02726,4.94137 -6.96286,0 -11.67961,-5.16598 -4.49217,-5.16599 -6.96285,-13.47648 -2.47068,-8.3105 -3.59373,-17.96864 -0.89842,-9.65815 -0.89842,-18.64247 0,-8.98432 0.89842,-18.41785 0.89844,-9.43354 3.14452,-17.51943 2.47068,-8.08588 6.96285,-13.02726 4.49215,-4.94138 11.67961,-4.94138 12.80266,0 15.94715,11.67962 2.69531,-2.9199 8.53512,-5.39059 6.0644,-2.6953 13.70107,-2.6953 17.29484,0 28.30063,8.75971 11.00577,8.75972 15.94715,24.25767 5.16599,15.27334 4.94139,35.48806 0,10.33197 -2.02147,18.86707 -1.79687,8.3105 -6.51365,13.47648 -4.49215,4.94138 -12.80263,4.94138 z"/></clipPath><clipPath id="clipPath15" clipPathUnits="userSpaceOnUse"><path style="font-size:224.608px;line-height:393.415px;font-family:'Cherry Bomb One';-inkscape-font-specification:'Cherry Bomb One';letter-spacing:0;fill:#d55c44;fill-opacity:1;stroke:none;stroke-width:2.11667;stroke-linecap:square;paint-order:stroke fill markers" id="path16" d="m 511.63431,224.36663 q -8.98433,0 -13.47647,-5.16598 -4.26755,-5.16599 -5.83981,-15.72256 -1.34765,-10.78119 -1.57226,-27.62679 0,-16.8456 1.34763,-27.62678 1.57226,-10.78119 6.06444,-15.72256 4.49214,-5.16599 13.47647,-5.16599 8.98432,0 13.25187,5.16599 4.49217,4.94137 6.06443,15.72256 1.57223,10.78118 1.57223,27.62678 0.22461,16.8456 -1.34762,27.62679 -1.57226,10.55657 -6.06444,15.72256 -4.49215,5.16598 -13.47647,5.16598 z"/></clipPath><clipPath id="clipPath17" clipPathUnits="userSpaceOnUse"><path style="font-size:224.608px;line-height:393.415px;font-family:'Cherry Bomb One';-inkscape-font-specification:'Cherry Bomb One';letter-spacing:0;fill:#d55c44;fill-opacity:1;stroke:none;stroke-width:2.11667;stroke-linecap:square;paint-order:stroke fill markers" id="path17" d="m 681.32926,224.3022 q -8.98433,0 -13.47647,-5.16597 -4.26755,-5.16599 -5.83981,-15.72257 -1.34765,-10.78118 -1.57226,-27.62678 0,-16.8456 1.34763,-27.62678 1.57226,-10.78119 6.06444,-15.72257 4.49214,-5.16598 13.47647,-5.16598 8.98432,0 13.25187,5.16598 4.49217,4.94138 6.06443,15.72257 1.57223,10.78118 1.57223,27.62678 0.22461,16.8456 -1.34762,27.62678 -1.57226,10.55658 -6.06444,15.72257 -4.49215,5.16597 -13.47647,5.16597 z"/></clipPath><clipPath id="clipPath18" clipPathUnits="userSpaceOnUse"><path style="font-size:224.608px;line-height:393.415px;font-family:'Cherry Bomb One';-inkscape-font-specification:'Cherry Bomb One';letter-spacing:0;fill:#d55c44;fill-opacity:1;stroke:none;stroke-width:2.11667;stroke-linecap:square;paint-order:stroke fill markers" id="path19" d="m 573.177,224.36663 q -7.63667,0 -12.57805,-4.94138 -4.71678,-5.16598 -7.18746,-13.70108 -2.47068,-8.53511 -3.36913,-19.5409 -0.89842,-11.00579 -0.89842,-22.68541 0,-7.86128 0.22461,-15.94717 0.44921,-8.31049 2.24607,-15.27334 2.02147,-6.96285 6.51362,-11.2304 4.71678,-4.49216 13.25187,-4.49216 6.06443,0 11.00582,2.9199 4.94136,2.6953 6.28901,8.3105 5.16599,-4.71677 13.02727,-6.73824 8.08587,-2.24608 16.62099,-2.24608 7.18746,0 14.59952,3.59373 7.41207,3.36912 12.57803,9.43353 5.16599,6.06442 5.16599,13.70109 0,6.51363 -4.94136,12.35344 -4.71678,5.83981 -13.4765,5.83981 -3.81831,0 -6.28901,-0.89843 -2.47068,-1.12304 -4.71676,-2.02147 -2.2461,-0.89844 -5.39059,-0.89844 -8.31051,0 -15.27337,6.73824 -6.73822,6.51364 -6.73822,17.74404 0,5.8398 -0.44921,12.80265 -0.22463,6.73824 -2.02147,13.02727 -1.57226,6.28902 -5.83983,10.33196 -4.26754,3.81834 -12.35342,3.81834 z"/></clipPath><clipPath id="clipPath19" clipPathUnits="userSpaceOnUse"><path style="font-size:224.608px;line-height:393.415px;font-family:'Cherry Bomb One';-inkscape-font-specification:'Cherry Bomb One';letter-spacing:0;fill:#d55c44;fill-opacity:1;stroke:none;stroke-width:2.11667;stroke-linecap:square;paint-order:stroke fill markers" id="path20" d="m 573.177,224.36663 q -7.63667,0 -12.57805,-4.94138 -4.71678,-5.16598 -7.18746,-13.70108 -2.47068,-8.53511 -3.36913,-19.5409 -0.89842,-11.00579 -0.89842,-22.68541 0,-7.86128 0.22461,-15.94717 0.44921,-8.31049 2.24607,-15.27334 2.02147,-6.96285 6.51362,-11.2304 4.71678,-4.49216 13.25187,-4.49216 6.06443,0 11.00582,2.9199 4.94136,2.6953 6.28901,8.3105 5.16599,-4.71677 13.02727,-6.73824 8.08587,-2.24608 16.62099,-2.24608 7.18746,0 14.59952,3.59373 7.41207,3.36912 12.57803,9.43353 5.16599,6.06442 5.16599,13.70109 0,6.51363 -4.94136,12.35344 -4.71678,5.83981 -13.4765,5.83981 -3.81831,0 -6.28901,-0.89843 -2.47068,-1.12304 -4.71676,-2.02147 -2.2461,-0.89844 -5.39059,-0.89844 -8.31051,0 -15.27337,6.73824 -6.73822,6.51364 -6.73822,17.74404 0,5.8398 -0.44921,12.80265 -0.22463,6.73824 -2.02147,13.02727 -1.57226,6.28902 -5.83983,10.33196 -4.26754,3.81834 -12.35342,3.81834 z"/></clipPath><clipPath id="clipPath20" clipPathUnits="userSpaceOnUse"><path style="font-size:224.608px;line-height:393.415px;font-family:'Cherry Bomb One';-inkscape-font-specification:'Cherry Bomb One';letter-spacing:0;fill:#d55c44;fill-opacity:1;stroke:none;stroke-width:2.11667;stroke-linecap:square;paint-order:stroke fill markers" id="path21" d="m 573.177,224.36663 q -7.63667,0 -12.57805,-4.94138 -4.71678,-5.16598 -7.18746,-13.70108 -2.47068,-8.53511 -3.36913,-19.5409 -0.89842,-11.00579 -0.89842,-22.68541 0,-7.86128 0.22461,-15.94717 0.44921,-8.31049 2.24607,-15.27334 2.02147,-6.96285 6.51362,-11.2304 4.71678,-4.49216 13.25187,-4.49216 6.06443,0 11.00582,2.9199 4.94136,2.6953 6.28901,8.3105 5.16599,-4.71677 13.02727,-6.73824 8.08587,-2.24608 16.62099,-2.24608 7.18746,0 14.59952,3.59373 7.41207,3.36912 12.57803,9.43353 5.16599,6.06442 5.16599,13.70109 0,6.51363 -4.94136,12.35344 -4.71678,5.83981 -13.4765,5.83981 -3.81831,0 -6.28901,-0.89843 -2.47068,-1.12304 -4.71676,-2.02147 -2.2461,-0.89844 -5.39059,-0.89844 -8.31051,0 -15.27337,6.73824 -6.73822,6.51364 -6.73822,17.74404 0,5.8398 -0.44921,12.80265 -0.22463,6.73824 -2.02147,13.02727 -1.57226,6.28902 -5.83983,10.33196 -4.26754,3.81834 -12.35342,3.81834 z"/></clipPath><clipPath id="clipPath21" clipPathUnits="userSpaceOnUse"><path style="font-size:224.608px;line-height:393.415px;font-family:'Cherry Bomb One';-inkscape-font-specification:'Cherry Bomb One';letter-spacing:0;fill:#d55c44;fill-opacity:1;stroke:none;stroke-width:2.11667;stroke-linecap:square;paint-order:stroke fill markers" id="path22" d="m 573.177,224.36663 q -7.63667,0 -12.57805,-4.94138 -4.71678,-5.16598 -7.18746,-13.70108 -2.47068,-8.53511 -3.36913,-19.5409 -0.89842,-11.00579 -0.89842,-22.68541 0,-7.86128 0.22461,-15.94717 0.44921,-8.31049 2.24607,-15.27334 2.02147,-6.96285 6.51362,-11.2304 4.71678,-4.49216 13.25187,-4.49216 6.06443,0 11.00582,2.9199 4.94136,2.6953 6.28901,8.3105 5.16599,-4.71677 13.02727,-6.73824 8.08587,-2.24608 16.62099,-2.24608 7.18746,0 14.59952,3.59373 7.41207,3.36912 12.57803,9.43353 5.16599,6.06442 5.16599,13.70109 0,6.51363 -4.94136,12.35344 -4.71678,5.83981 -13.4765,5.83981 -3.81831,0 -6.28901,-0.89843 -2.47068,-1.12304 -4.71676,-2.02147 -2.2461,-0.89844 -5.39059,-0.89844 -8.31051,0 -15.27337,6.73824 -6.73822,6.51364 -6.73822,17.74404 0,5.8398 -0.44921,12.80265 -0.22463,6.73824 -2.02147,13.02727 -1.57226,6.28902 -5.83983,10.33196 -4.26754,3.81834 -12.35342,3.81834 z"/></clipPath><clipPath id="clipPath23" clipPathUnits="userSpaceOnUse"><path style="font-size:224.608px;line-height:393.415px;font-family:'Cherry Bomb One';-inkscape-font-specification:'Cherry Bomb One';letter-spacing:0;fill:#d55c44;fill-opacity:1;stroke:none;stroke-width:2.11667;stroke-linecap:square;paint-order:stroke fill markers" id="path25" d="m 681.43807,224.36663 q -8.98432,0 -13.47647,-5.16598 -4.26757,-5.16599 -5.83983,-15.72256 -1.34763,-10.78119 -1.57226,-27.62679 0,-16.8456 1.34765,-27.62678 1.57226,-10.78119 6.06444,-15.72256 4.49215,-5.16599 13.47647,-5.16599 8.98432,0 13.25187,5.16599 4.49215,4.94137 6.06441,15.72256 1.57226,10.78118 1.57226,27.62678 0.2246,16.8456 -1.34766,27.62679 -1.57223,10.55657 -6.06441,15.72256 -4.49215,5.16598 -13.47647,5.16598 z"/></clipPath><clipPath id="clipPath25" clipPathUnits="userSpaceOnUse"><path style="font-size:224.608px;line-height:393.415px;font-family:'Cherry Bomb One';-inkscape-font-specification:'Cherry Bomb One';letter-spacing:0;fill:#d55c44;fill-opacity:1;stroke:none;stroke-width:2.11667;stroke-linecap:square;paint-order:stroke fill markers" id="path26" d="m 681.43807,224.36663 q -8.98432,0 -13.47647,-5.16598 -4.26757,-5.16599 -5.83983,-15.72256 -1.34763,-10.78119 -1.57226,-27.62679 0,-16.8456 1.34765,-27.62678 1.57226,-10.78119 6.06444,-15.72256 4.49215,-5.16599 13.47647,-5.16599 8.98432,0 13.25187,5.16599 4.49215,4.94137 6.06441,15.72256 1.57226,10.78118 1.57226,27.62678 0.2246,16.8456 -1.34766,27.62679 -1.57223,10.55657 -6.06441,15.72256 -4.49215,5.16598 -13.47647,5.16598 z"/></clipPath><clipPath id="clipPath34" clipPathUnits="userSpaceOnUse"><path id="path35" style="fill:#d55c44;fill-opacity:1;stroke-width:2.11667;stroke-linecap:square;paint-order:stroke fill markers" d="m 169.33334,220.13334 c 0,8.46667 -4.23334,16.93333 -33.86667,16.93333 -29.63333,0 -33.86667,-8.46666 -33.86667,-16.93333 0,-12.7 8.46667,-21.16667 33.86667,-21.16667 25.4,0 33.86667,8.46667 33.86667,21.16667 z"/></clipPath><clipPath id="clipPath35" clipPathUnits="userSpaceOnUse"><path id="path36" style="fill:#d55c44;fill-opacity:1;stroke-width:2.11667;stroke-linecap:square;paint-order:stroke fill markers" d="m 715.91343,141.3418 c 0,8.46667 -4.23334,16.93332 -33.86667,16.93332 -29.63333,0 -33.86667,-8.46665 -33.86667,-16.93332 0,-12.7 8.46667,-21.16668 33.86667,-21.16668 25.4,0 33.86667,8.46668 33.86667,21.16668 z"/></clipPath><filter style="color-interpolation-filters:sRGB" id="filter61" width="1.865" height="1.626" x="-.432" y="-.313"><feGaussianBlur id="feGaussianBlur61" stdDeviation="18.493"/></filter></defs><g id="layer1" transform="translate(151.57,-212.41655)"><g id="g69" transform="matrix(1.1313091,0,0,1.1313091,-521.46052,171.60178)" style="fill:#d55c44;fill-opacity:1"><path style="font-size:224.608px;line-height:393.415px;font-family:'Cherry Bomb One';-inkscape-font-specification:'Cherry Bomb One';letter-spacing:0;fill:#d55c44;fill-opacity:1;stroke:none;stroke-width:.673514;stroke-linecap:square;paint-order:stroke fill markers" id="path63" d="m 427.944,81.955473 q -2.85876,0 -4.28814,-1.64378 -1.35793,-1.6438 -1.85821,-5.00284 -0.42881,-3.43053 -0.50028,-8.79071 0,-5.36019 0.42881,-8.79071 0.50029,-3.43053 1.92968,-5.00285 1.42938,-1.64379 4.28814,-1.64379 2.85877,0 4.21669,1.64379 1.42938,1.57232 1.92966,5.00285 0.50029,3.43052 0.50029,8.79071 0.0715,5.36018 -0.42882,8.79071 -0.50028,3.35904 -1.92966,5.00284 -1.42939,1.64378 -4.28816,1.64378 z"/><path style="font-size:224.608px;line-height:393.415px;font-family:'Cherry Bomb One';-inkscape-font-specification:'Cherry Bomb One';letter-spacing:0;fill:#d55c44;fill-opacity:1;stroke:none;stroke-width:.673514;stroke-linecap:square;paint-order:stroke fill markers" id="path64" d="m 393.49586,81.955473 q -2.42995,0 -4.00228,-1.57232 -1.50085,-1.64379 -2.28701,-4.35961 -0.78616,-2.71584 -1.07204,-6.21782 -0.28588,-3.50199 -0.28588,-7.21839 0,-2.50142 0.0715,-5.07431 0.14294,-2.64436 0.71469,-4.8599 0.64323,-2.21555 2.07261,-3.57346 1.50085,-1.42938 4.21668,-1.42938 1.92967,0 3.50199,0.92909 1.57232,0.85763 2.00114,2.64436 1.64378,-1.50085 4.1452,-2.14407 2.5729,-0.71469 5.28873,-0.71469 2.28701,0 4.6455,1.1435 2.35848,1.07204 4.00227,3.00171 1.64379,1.92966 1.64379,4.35962 0,2.0726 -1.57233,3.9308 -1.50085,1.8582 -4.28814,1.8582 -1.21498,0 -2.00114,-0.28588 -0.78616,-0.35734 -1.50086,-0.64322 -0.71469,-0.28588 -1.71525,-0.28588 -2.64436,0 -4.85991,2.14408 -2.14408,2.07261 -2.14408,5.64607 0,1.85819 -0.14293,4.07373 -0.0715,2.14408 -0.64322,4.14522 -0.50029,2.00114 -1.8582,3.28758 -1.35792,1.21497 -3.9308,1.21497 z"/><path style="font-size:224.608px;line-height:393.415px;font-family:'Cherry Bomb One';-inkscape-font-specification:'Cherry Bomb One';letter-spacing:0;fill:#d55c44;fill-opacity:1;stroke:none;stroke-width:.673514;stroke-linecap:square;paint-order:stroke fill markers" id="path65" d="m 373.91327,81.955473 q -2.85877,0 -4.28815,-1.64378 -1.35791,-1.6438 -1.8582,-5.00284 -0.42881,-3.43053 -0.50028,-8.79071 0,-5.36019 0.42881,-8.79071 0.50029,-3.43053 1.92967,-5.00285 1.42938,-1.64379 4.28815,-1.64379 2.85877,0 4.21668,1.64379 1.42938,1.57232 1.92967,5.00285 0.50029,3.43052 0.50029,8.79071 0.0715,5.36018 -0.42882,8.79071 -0.50029,3.35904 -1.92967,5.00284 -1.42938,1.64378 -4.28815,1.64378 z"/><path style="font-size:224.608px;line-height:393.415px;font-family:'Cherry Bomb One';-inkscape-font-specification:'Cherry Bomb One';letter-spacing:0;fill:#d55c44;fill-opacity:1;stroke:none;stroke-width:.673514;stroke-linecap:square;paint-order:stroke fill markers" id="path66" d="m 355.18829,81.955473 q -2.85878,0 -4.07375,-1.57232 -1.14351,-1.64379 -1.35791,-4.07374 -0.21441,-2.50142 -0.21441,-5.00284 0,-3.78787 -1.07204,-6.07488 -1.07204,-2.35848 -3.78786,-2.35848 -2.42996,0 -3.57347,2.35848 -1.1435,2.28701 -1.1435,6.07488 0,2.50142 -0.21441,4.93137 -0.14294,2.42995 -1.28644,4.07375 -1.14351,1.57232 -4.14522,1.57232 -2.21554,0 -3.71639,-1.64379 -1.42939,-1.6438 -2.21554,-4.28815 -0.78617,-2.64437 -1.14352,-5.71754 -0.28587,-3.07317 -0.28587,-5.93194 0,-2.85877 0.28587,-5.86047 0.28588,-3.0017 1.00058,-5.5746 0.78616,-2.57289 2.21554,-4.14521 1.42938,-1.57232 3.71639,-1.57232 4.07375,0 5.07432,3.7164 0.85763,-0.9291 2.71583,-1.71526 1.92967,-0.85763 4.35962,-0.85763 5.50312,0 9.00511,2.78729 3.50199,2.78731 5.07431,7.71868 1.64379,4.8599 1.57233,11.29212 0,3.28759 -0.64323,6.00341 -0.57175,2.64436 -2.07261,4.28815 -1.42938,1.57232 -4.07373,1.57232 z"/><path style="display:inline;mix-blend-mode:normal;fill:#d55c44;fill-opacity:1;stroke:none;stroke-width:4.02897;stroke-linecap:square;paint-order:stroke fill markers" id="path61" d="m 101.6,42.333334 c 16.93334,0 84.66667,50.800005 84.66667,93.133336 0,28.57209 -13.39181,41.07402 -25.11117,46.54433 -8.87807,4.14406 -11.33775,-1.382 -6.3999,-9.88879 3.31767,-5.71559 6.11107,-12.63293 6.11107,-19.72221 0,-12.7 -4.23333,-21.16666 -12.7,-29.63333 -8.46667,-8.46667 -19.34216,-12.70001 -25.4,-12.7 -8.46666,1e-5 -12.7,24.8856 -12.7,38.1 0,10.52973 3.14292,20.01182 6.30176,26.88277 2.97912,6.48004 0.48516,10.93086 -6.19604,8.47352 -7.29956,-2.68477 -16.052373,-7.98293 -21.272388,-18.42296 -8.466666,-16.93333 -4.233333,-41.3022 -4.233333,-63.5 0,-33.866665 -7e-6,-59.266666 16.933331,-59.266666 z" transform="matrix(0.16716789,0,0,0.16716789,351.42847,16.594243)"/><path style="display:inline;mix-blend-mode:normal;fill:#d55c44;fill-opacity:1;stroke:none;stroke-width:4.02897;stroke-linecap:square;paint-order:stroke fill markers" id="path62" d="m 101.6,42.333334 c 16.93334,0 84.66667,50.800005 84.66667,93.133336 0,28.57209 -13.39181,41.07402 -25.11117,46.54433 -8.87807,4.14406 -11.33775,-1.382 -6.3999,-9.88879 3.31767,-5.71559 6.11107,-12.63293 6.11107,-19.72221 0,-12.7 -4.23333,-21.16666 -12.7,-29.63333 -8.46667,-8.46667 -19.34216,-12.70001 -25.4,-12.7 -8.46666,1e-5 -12.7,24.8856 -12.7,38.1 0,10.52973 3.14292,20.01182 6.30176,26.88277 2.97912,6.48004 0.48516,10.93086 -6.19604,8.47352 -7.29956,-2.68477 -16.052373,-7.98293 -21.272388,-18.42296 -8.466666,-16.93333 -4.233333,-41.3022 -4.233333,-63.5 0,-33.866665 -7e-6,-59.266666 16.933331,-59.266666 z" transform="matrix(0.16716789,0,0,0.16716789,405.30952,16.594243)"/></g></g></svg>